<?xml version="1.0" standalone="no"?><!DOCTYPE svg PUBLIC "-//W3C//DTD SVG 1.1//EN" "http://www.w3.org/Graphics/SVG/1.1/DTD/svg11.dtd"><svg t="1710059217711" class="icon" viewBox="0 0 1024 1024" version="1.1" xmlns="http://www.w3.org/2000/svg" p-id="7797" xmlns:xlink="http://www.w3.org/1999/xlink" width="200" height="200"><path d="M510.332248 0c-283.517915 0-510.332248 230.149837-510.332248 510.332248 0 283.517915 230.149837 510.332248 510.332248 510.332247s510.332248-230.149837 510.332247-510.332247-226.814332-510.332248-510.332247-510.332248z m276.846905 700.456026h-557.029316v-40.026059h557.029316c10.006515 0 20.013029 10.006515 20.013029 20.01303 0 13.34202-10.006515 20.013029-20.013029 20.013029z m0-80.052117h-557.029316v-320.208469h240.156352c90.058632 0 180.117264 33.355049 253.498371 80.052117h-93.394137v80.052117h193.459284c30.019544 30.019544 46.697068 60.039088 46.697068 80.052118-3.335505 73.381107-40.026059 80.052117-83.387622 80.052117z" fill="#24A0F2" p-id="7798"></path><path d="M306.86645 380.247557h80.052117v80.052117h-80.052117v-80.052117z m160.104234 0h80.052117v80.052117h-80.052117v-80.052117z" fill="#24A0F2" p-id="7799"></path></svg>