<?xml version="1.0" standalone="no"?><!DOCTYPE svg PUBLIC "-//W3C//DTD SVG 1.1//EN" "http://www.w3.org/Graphics/SVG/1.1/DTD/svg11.dtd"><svg t="1710059127453" class="icon" viewBox="0 0 1024 1024" version="1.1" xmlns="http://www.w3.org/2000/svg" p-id="4357" xmlns:xlink="http://www.w3.org/1999/xlink" width="200" height="200"><path d="M856 879.47H552v-584a40 40 0 0 0-40-40 40 40 0 0 0-40 40v584H168a40 40 0 0 0-40 40 40 40 0 0 0 40 40h688a40 40 0 0 0 40-40 40 40 0 0 0-40-40z" fill="#34a2dc" p-id="4358" data-spm-anchor-id="a313x.search_index.0.i11.2ce83a81e9NnOl" class="selected"></path><path d="M756.65 165.87c-135.12-135.12-354.19-135.12-489.31 0-134.59 134.58-135.1 352.44-1.59 487.68 0.53 0.55 1.05 1.1 1.59 1.64s1.09 1 1.63 1.59a40.05 40.05 0 0 0 55-58.21c-0.38-0.37-0.77-0.73-1.16-1.09-102.75-104-102.39-271.54 1.11-375 103.88-103.88 272.31-103.88 376.19 0s103.88 272.3 0 376.18c-0.9 0.89-1.81 1.75-2.71 2.63l-0.51 0.5a40.06 40.06 0 0 0-1.44 54.85c0.54 0.54 1.06 1.09 1.59 1.63s1.09 1.06 1.63 1.59a40 40 0 0 0 52.67 0.56q1.93-1.85 3.85-3.74c0.49-0.49 1-1 1.48-1.46 135.11-135.16 135.11-354.22-0.02-489.35z" fill="#34a2dc" p-id="4359" data-spm-anchor-id="a313x.search_index.0.i0.2ce83a81e9NnOl" class="selected"></path></svg>